<svg xmlns="http://www.w3.org/2000/svg" xmlns:se="http://svg-edit.googlecode.com" xmlns:xlink="http://www.w3.org/1999/xlink" xmlns:dc="http://purl.org/dc/elements/1.1/" xmlns:cc="http://creativecommons.org/ns#" xmlns:rdf="http://www.w3.org/1999/02/22-rdf-syntax-ns#" xmlns:inkscape="http://www.inkscape.org/namespaces/inkscape" width="777" height="480" style="">                                    <title>my vector image</title>                                    <!-- Created with Vector Paint - http://www.vectorpaint.yaks.com/ https://chrome.google.com/webstore/detail/hnbpdiengicdefcjecjbnjnoifekhgdo -->                                    <rect id="backgroundrect" width="100%" height="100%" x="0" y="0" fill="#FFFFFF" stroke="none"/>                                <g class="currentLayer" style=""><title>Layer 1</title><polyline fill="#484848" stroke="#000099" stroke-width="2" stroke-linejoin="round" stroke-dashoffset="" fill-rule="nonzero" marker-start="" marker-mid="" marker-end="" id="svg_1" points="267.9499969482422,448.625 268.5749969482422,447.375 269.8249969482422,446.125 269.8249969482422,445.5 269.8249969482422,441.125 271.0749969482422,429.25 273.5749969482422,422.375 282.9499969482422,405.4999694824219 294.8249969482422,389.25 314.8249969482422,375.4999694824219 338.5749969482422,369.25 366.0749816894531,367.3749694824219 391.0749816894531,367.3749694824219 422.9499816894531,375.4999694824219 436.6999816894531,384.25 444.1999816894531,394.875 446.6999816894531,404.25 449.8249816894531,411.125 450.4499816894531,413.625 450.4499816894531,414.875 451.6999816894531,423 451.6999816894531,428.625 451.6999816894531,438 451.0749816894531,441.125 449.8249816894531,448 444.8249816894531,460.5 439.1999816894531,470.5 431.6999816894531,481.125 421.6999816894531,491.125 410.4499816894531,498.625 397.9499816894531,504.25 386.0749816894531,507.375 375.4499816894531,509.875 367.3249816894531,512.375 359.8249816894531,514.875 354.1999816894531,516.125 342.3249969482422,521.125 334.1999969482422,524.875 325.4499969482422,529.25 314.8249969482422,533.625 301.6999969482422,537.375 286.6999969482422,542.375 271.6999969482422,546.125 254.8249969482422,549.25 240.4499969482422,551.125 231.6999969482422,551.125 222.9499969482422,551.125 214.8249969482422,551.125 204.8249969482422,548.625 201.0749969482422,545.5 197.9499969482422,543 196.0749969482422,540.5 195.4499969482422,539.875 202.3249969482422,551.125 204.8249969482422,553.625 221.6999969482422,567.375 239.8249969482422,575.5 260.4499969482422,581.125 282.9499969482422,584.875 307.9499969482422,586.125 336.6999969482422,586.125 367.9499816894531,586.125 396.6999816894531,586.125 424.1999816894531,586.125 462.3249816894531,586.125 511.0749816894531,585.5 532.3249816894531,581.75 549.1999816894531,575.5 561.0749816894531,568 566.0749816894531,559.25 568.5749816894531,548.625 570.4499816894531,536.75 572.3249816894531,520.5 574.1999816894531,503 578.5749816894531,487.375 582.9499816894531,473 591.6999816894531,451.75 596.0749816894531,441.75 597.3249816894531,439.875 597.9499816894531,438 597.9499816894531,437.375 598.5749816894531,438.625 599.2000122070312,445.5 599.2000122070312,451.75 599.2000122070312,465.5 599.2000122070312,476.75 599.2000122070312,482.375 " style="color: rgb(0, 0, 0);" class=""/><path fill="#0bd5d5" fill-opacity="1" stroke="#e84141" stroke-opacity="1" stroke-width="2" stroke-dasharray="none" stroke-linejoin="round" stroke-linecap="butt" stroke-dashoffset="" fill-rule="nonzero" opacity="1" marker-start="" marker-mid="" marker-end="" d="M279,356.25 C279,339.12292817679554 291.75414364640886,325.25 307.5,325.25 C323.24585635359114,325.25 336,339.12292817679554 336,356.25 C336,373.37707182320446 323.24585635359114,387.25 307.5,387.25 C291.75414364640886,387.25 279,373.37707182320446 279,356.25 z" id="svg_2" class=""/><polyline fill="none" stroke="#e84141" stroke-width="2" stroke-linejoin="round" stroke-dashoffset="" fill-rule="nonzero" marker-start="" marker-mid="" marker-end="" id="svg_4" points="322.9499816894531,328.625 322.9499816894531,327.8093748278916 323.5749816894531,326.7218745984137 325.4499816894531,324.27499908208847 326.6999816894531,320.1968732215464 328.5749816894531,315.5749972462654 330.4499816894531,311.2249963283539 332.3249816894531,299.8062439188361 333.5749816894531,295.7281114207194 333.5749816894531,292.46561073228577 333.5749816894531,289.2031100438521 333.5749816894531,286.7562345275269 333.5749816894531,284.30935901120165 333.5749816894531,282.40623360961536 333.5749816894531,280.50310820802906 333.5749816894531,278.0562326917038 333.5749816894531,276.96873246222594 333.5749816894531,275.06560706063965 333.5749816894531,274.5218569459007 333.5749816894531,274.24998188853124 " style="color: rgb(0, 0, 0);" class=""/><path fill="#009899" fill-opacity="1" stroke="#e84141" stroke-opacity="1" stroke-width="2" stroke-dasharray="none" stroke-linejoin="round" stroke-linecap="butt" stroke-dashoffset="" fill-rule="nonzero" opacity="1" marker-start="" marker-mid="" marker-end="" d="M292,266 C292,258.2651933701657 308.11049723756906,252 328,252 C347.88950276243094,252 364,258.2651933701657 364,266 C364,273.7348066298343 347.88950276243094,280 328,280 C308.11049723756906,280 292,273.7348066298343 292,266 Z" id="svg_6"/><path fill="#009899" fill-opacity="1" stroke="#e84141" stroke-opacity="1" stroke-width="2" stroke-dasharray="none" stroke-linejoin="round" stroke-linecap="butt" stroke-dashoffset="" fill-rule="nonzero" opacity="1" marker-start="" marker-mid="" marker-end="" d="M335.449995764345,221.74998853976444 L332.3249958109111,257.99999366203855 " id="svg_8" class=""/><polyline fill="none" stroke="#e84141" stroke-width="2" stroke-linejoin="round" stroke-dashoffset="" fill-rule="nonzero" marker-start="" marker-mid="" marker-end="" id="svg_12" points="335.449995764345,221.74998906627312 335.449995764345,222.3749890569599 334.8249957736582,224.2499890290202 333.57499579228465,225.49998901039376 331.07499582953756,225.49998901039376 323.57499594129627,225.49998901039376 316.074996053055,225.49998901039376 303.5749962393195,225.49998901039376 291.074996425584,225.49998901039376 290.44999643489723,225.49998901039376 289.82499644421046,224.2499890290202 289.82499644421046,222.3749890569599 289.82499644421046,221.12498907558634 289.82499644421046,219.8749890942128 289.82499644421046,217.3749891314657 289.82499644421046,216.12498915009215 289.82499644421046,214.24998917803183 289.82499644421046,210.49998923391118 289.82499644421046,207.99998927116408 289.82499644421046,205.49998930841699 289.82499644421046,202.9999893456699 289.82499644421046,199.87498939223602 289.82499644421046,194.87498946674182 289.82499644421046,193.62498948536827 289.82499644421046,192.9999894946815 289.82499644421046,192.37498950399473 289.1999964535237,191.74998951330795 287.32499648146336,190.4999895319344 286.6999964907766,189.87498954124763 283.5749965373427,189.87498954124763 281.6999965652824,189.87498954124763 281.6999965652824,189.24998955056085 281.6999965652824,188.62498955987408 280.44999658390884,187.9999895691873 276.6999966397882,187.37498957850053 274.1999966770411,186.12498959712698 272.94999669566755,185.4999896064402 272.3249967049808,184.24998962506666 271.0749967236072,182.9999896436931 269.1999967515469,181.74998966231956 267.94999677017336,179.24998969957247 267.94999677017336,177.37498972751214 267.3249967794866,174.87498976476505 267.3249967794866,173.6249897833915 267.3249967794866,171.74998981133118 266.6999967887998,171.1249898206444 265.44999680742626,172.99998979270472 264.8249968167395,173.6249897833915 262.94999684467916,174.87498976476505 261.6999968633056,176.1249897461386 " style="color: rgb(0, 0, 0);"/><polyline fill="none" stroke="#e84141" stroke-width="2" stroke-linejoin="round" stroke-dashoffset="" fill-rule="nonzero" marker-start="" marker-mid="" marker-end="" id="svg_13" points="341.6999956712127,181.1249896716328 341.07499568052594,181.1249896716328 340.44999568983917,181.1249896716328 339.8249956991524,181.1249896716328 339.8249956991524,180.49998968094602 339.1999957084656,179.87498969025924 336.6999957457185,179.87498969025924 334.8249957736582,178.6249897088857 329.19999585747723,176.74998973682537 321.07499597854917,174.87498976476505 312.9499960996211,173.6249897833915 301.0749962765724,171.74998981133118 287.94999647215013,166.74998988583698 277.94999662116174,161.124989969656 277.32499663047497,161.124989969656 274.8249966677279,158.62499000690892 272.94999669566755,157.37499002553537 271.0749967236072,155.49999005347505 270.44999673292045,154.2499900721015 269.1999967515469,151.7499901093544 269.1999967515469,150.49999012798085 269.1999967515469,148.62499015592053 269.1999967515469,147.37499017454698 267.3249967794866,142.99999023973956 267.3249967794866,142.3749902490528 267.3249967794866,141.749990258366 267.3249967794866,140.49999027699246 267.3249967794866,137.99999031424537 267.3249967794866,136.74999033287182 267.3249967794866,134.8749903608115 267.3249967794866,134.24999037012472 267.3249967794866,132.99999038875117 267.3249967794866,131.74999040737762 267.3249967794866,131.12499041669085 267.3249967794866,129.24999044463053 267.3249967794866,128.62499045394375 267.3249967794866,126.74999048188343 267.3249967794866,124.8749905098231 267.3249967794866,122.99999053776278 267.3249967794866,121.12499056570246 267.3249967794866,120.49999057501569 " style="color: rgb(0, 0, 0);"/><polyline fill="none" stroke="#e84141" stroke-width="2" stroke-linejoin="round" stroke-dashoffset="" fill-rule="nonzero" marker-start="" marker-mid="" marker-end="" id="svg_14" points="264.8249968167395,174.24998977407827 263.57499683536594,174.24998977407827 260.44999688193207,174.24998977407827 259.1999969005585,174.24998977407827 258.57499690987174,173.6249897833915 257.3249969284982,171.74998981133118 255.44999695643784,169.24998984858408 253.57499698437752,166.74998988583698 251.6999970123172,164.24998992308988 249.82499704025687,162.37498995102956 247.94999706819655,159.87498998828246 246.699997086823,157.99999001622214 246.07499709613623,156.12499004416182 245.44999710544946,154.87499006278827 244.82499711476268,152.99999009072795 244.82499711476268,152.37499010004117 244.1999971240759,151.7499901093544 244.1999971240759,150.49999012798085 243.57499713338913,148.62499015592053 242.32499715201558,147.37499017454698 241.6999971613288,146.7499901838602 " style="color: rgb(0, 0, 0);"/><polyline fill="none" stroke="#e84141" stroke-width="2" stroke-linejoin="round" stroke-dashoffset="" fill-rule="nonzero" marker-start="" marker-mid="" marker-end="" id="svg_15" points="342.94999565258627,131.74999040737762 342.94999565258627,134.24999037012472 342.94999565258627,136.12499034218504 342.94999565258627,139.8749902863057 342.94999565258627,144.2499902211131 342.94999565258627,147.37499017454698 342.94999565258627,149.2499901466073 342.94999565258627,149.87499013729408 342.94999565258627,150.49999012798085 342.94999565258627,151.12499011866763 342.94999565258627,152.37499010004117 342.94999565258627,154.2499900721015 342.94999565258627,156.12499004416182 342.94999565258627,160.49998997896924 342.94999565258627,161.7499899603428 342.94999565258627,163.6249899324031 342.94999565258627,164.87498991377666 342.94999565258627,165.49998990446343 342.94999565258627,167.37498987652376 342.3249956618995,168.6249898578973 342.3249956618995,171.74998981133118 342.3249956618995,172.99998979270472 342.3249956618995,173.6249897833915 342.3249956618995,175.49998975545182 342.3249956618995,176.1249897461386 342.3249956618995,177.99998971819892 342.3249956618995,178.6249897088857 342.3249956618995,179.24998969957247 342.3249956618995,180.49998968094602 " style="color: rgb(0, 0, 0);"/><path fill="#d50bd5" fill-opacity="1" stroke="#b80404" stroke-opacity="1" stroke-width="2" stroke-dasharray="none" stroke-linejoin="round" stroke-linecap="butt" stroke-dashoffset="" fill-rule="nonzero" opacity="1" marker-start="" marker-mid="" marker-end="" d="M240,149 C240,135.1878453038674 250.06906077348066,124 262.5,124 C274.93093922651934,124 285,135.1878453038674 285,149 C285,162.8121546961326 274.93093922651934,174 262.5,174 C250.06906077348066,174 240,162.8121546961326 240,149 Z" id="svg_17"/><polyline fill="none" stroke="#d50b0b" stroke-width="2" stroke-linejoin="round" stroke-dashoffset="" fill-rule="nonzero" marker-start="" marker-mid="" marker-end="" id="svg_24" points="391.0749949354679,366.124986914918 390.4499949447811,364.2499869428577 388.5749949727208,361.7499869801106 386.0749950099737,357.37498704530316 383.5749950472266,354.87498708255606 381.69999507516627,351.1249871384354 381.0749950844795,349.87498715706187 379.1999951124192,345.49998722225445 377.32499514035885,342.3749872688206 375.4499951682985,337.99998733401316 375.4499951682985,336.12498736195283 375.4499951682985,334.2499873898925 375.4499951682985,333.62498739920574 375.4499951682985,332.3749874178322 375.4499951682985,330.49998744577186 375.4499951682985,327.99998748302477 375.4499951682985,326.7499875016512 375.4499951682985,324.8749875295909 375.4499951682985,322.9999875575306 375.4499951682985,320.4999875947835 375.4499951682985,318.62498762272315 376.0749951589853,315.4999876692893 376.6999951496721,313.62498769722896 376.6999951496721,312.3749877158554 376.6999951496721,311.12498773448186 377.32499514035885,310.4999877437951 377.32499514035885,309.24998776242154 377.32499514035885,307.3749877903612 377.9499951310456,304.24998783692735 377.9499951310456,302.9999878555538 378.5749951217324,300.4999878928067 379.1999951124192,299.24998791143315 379.1999951124192,297.9999879300596 380.4499950937927,296.1249879579993 382.32499506585305,294.24998798593896 383.5749950472266,291.74998802319186 386.0749950099737,289.24998806044476 389.82499495409434,286.1249881070109 390.4499949447811,284.87498812563734 392.9499949075282,281.7499881722035 396.0749948609621,278.6249882187696 396.69999485164885,278.6249882187696 397.3249948423356,276.7499882467093 397.3249948423356,276.1249882560225 397.3249948423356,275.49998826533573 397.3249948423356,274.87498827464896 397.3249948423356,272.37498831190186 397.3249948423356,271.1249883305283 397.3249948423356,269.87498834915476 397.3249948423356,266.7499883957209 397.3249948423356,264.2499884329738 397.3249948423356,262.37498846091347 397.3249948423356,259.8749884981664 397.3249948423356,256.7499885447325 397.3249948423356,252.99998860061186 397.3249948423356,249.874988647178 397.3249948423356,247.3749886844309 397.3249948423356,244.8749887216838 396.69999485164885,242.3749887589367 396.69999485164885,241.12498877756315 396.0749948609621,239.24998880550282 396.0749948609621,237.99998882412928 396.0749948609621,237.3749888334425 396.0749948609621,235.49998886138215 396.0749948609621,233.62498888932183 396.0749948609621,231.7499889172615 396.0749948609621,229.87498894520118 396.0749948609621,228.62498896382763 394.82499487958853,226.12498900108054 394.82499487958853,223.62498903833344 394.82499487958853,221.74998906627312 393.574994898215,216.74998914077892 393.574994898215,215.49998915940537 392.9499949075282,211.12498922459795 392.32499491684143,209.8749892432244 391.69999492615466,207.99998927116408 391.0749949354679,205.49998930841699 391.0749949354679,202.9999893456699 390.4499949447811,199.87498939223602 390.4499949447811,197.9999894201757 390.4499949447811,196.74998943880215 390.4499949447811,194.24998947605505 390.4499949447811,192.37498950399473 390.4499949447811,189.24998955056085 390.4499949447811,187.37498957850053 390.4499949447811,185.4999896064402 390.4499949447811,182.37498965300634 389.82499495409434,179.87498969025924 389.19999496340756,177.37498972751214 388.5749949727208,176.1249897461386 388.5749949727208,174.24998977407827 387.949994982034,172.99998979270472 387.32499499134724,172.37498980201795 386.69999500066046,170.49998982995763 386.69999500066046,169.87498983927085 386.0749950099737,168.6249898578973 386.0749950099737,167.37498987652376 386.0749950099737,166.1249898951502 386.0749950099737,164.24998992308988 386.0749950099737,162.37498995102956 386.0749950099737,161.7499899603428 386.0749950099737,159.2499899975957 385.4499950192869,157.99999001622214 385.4499950192869,157.37499002553537 384.19999503791337,157.37499002553537 381.69999507516627,157.37499002553537 379.82499510310595,157.37499002553537 377.9499951310456,157.37499002553537 377.32499514035885,157.37499002553537 374.82499517761175,157.37499002553537 374.199995186925,157.37499002553537 373.5749951962382,156.7499900348486 373.5749951962382,156.12499004416182 372.94999520555143,155.49999005347505 372.32499521486466,154.87499006278827 371.6999952241779,153.62499008141472 371.6999952241779,151.12499011866763 371.0749952334911,147.99999016523375 369.82499525211756,144.87499021179988 369.1999952614308,142.99999023973956 368.574995270744,141.12499026767924 367.94999528005724,140.49999027699246 367.94999528005724,139.8749902863057 367.94999528005724,139.24999029561891 367.94999528005724,137.99999031424537 367.94999528005724,137.3749903235586 367.94999528005724,135.49999035149827 367.94999528005724,134.8749903608115 367.94999528005724,134.24999037012472 368.574995270744,133.62499037943795 368.574995270744,132.99999038875117 368.574995270744,132.3749903980644 369.82499525211756,131.74999040737762 370.44999524280433,131.74999040737762 371.0749952334911,131.12499041669085 " style="color: rgb(0, 0, 0);"/><path fill="#0b0bd5" fill-opacity="1" stroke="#d50b0b" stroke-opacity="1" stroke-width="2" stroke-dasharray="none" stroke-linejoin="round" stroke-linecap="butt" stroke-dashoffset="" fill-rule="nonzero" opacity="1" marker-start="" marker-mid="" marker-end="" d="M344,125 C344,116.16022099447514 351.3839779005525,109 360.5,109 C369.6160220994475,109 377,116.16022099447514 377,125 C377,133.83977900552486 369.6160220994475,141 360.5,141 C351.3839779005525,141 344,133.83977900552486 344,125 Z" id="svg_25"/></g></svg>
