<svg xmlns="http://www.w3.org/2000/svg" xmlns:se="http://svg-edit.googlecode.com" xmlns:xlink="http://www.w3.org/1999/xlink" xmlns:dc="http://purl.org/dc/elements/1.1/" xmlns:cc="http://creativecommons.org/ns#" xmlns:rdf="http://www.w3.org/1999/02/22-rdf-syntax-ns#" xmlns:inkscape="http://www.inkscape.org/namespaces/inkscape" width="777" height="480" style="">                                    <title>my vector image</title>                                    <!-- Created with Vector Paint - http://www.vectorpaint.yaks.com/ https://chrome.google.com/webstore/detail/hnbpdiengicdefcjecjbnjnoifekhgdo -->                                    <rect id="backgroundrect" width="100%" height="100%" x="0" y="0" fill="#FFFFFF" stroke="none"/>                                <g class="currentLayer" style=""><title>Layer 1</title><polyline fill="#484848" stroke="#000099" stroke-width="2" stroke-linejoin="round" stroke-dashoffset="" fill-rule="nonzero" marker-start="" marker-mid="" marker-end="" id="svg_1" points="181.0749980647117,296.74998794868606 181.69999805539848,295.4999879673125 182.94999803677203,294.24998798593896 182.94999803677203,293.6249879952522 182.94999803677203,289.24998806044476 184.19999801814558,277.37498823739605 186.69999798089268,270.49998833984154 196.0749978411943,253.62498859129863 207.949997664243,237.3749888334425 227.94999736621978,223.62498903833347 251.6999970123172,217.3749891314657 279.1999966025353,215.49998915940537 304.19999623000626,215.49998915940537 336.07499575503175,223.62498903833347 349.8249955501408,232.3749889079483 357.3249954383821,242.99998874962347 359.8249954011292,252.37498860992508 362.94999535456304,259.2499885074796 363.5749953452498,261.7499884702267 363.5749953452498,262.99998845160025 364.82499532662337,271.1249883305283 364.82499532662337,276.7499882467093 364.82499532662337,286.1249881070109 364.1999953359366,289.24998806044476 362.94999535456304,296.1249879579993 357.94999542906885,308.62498777173477 352.3249955128879,318.62498762272315 344.8249956246466,329.2499874643983 334.8249957736582,339.2499873153867 323.57499594129627,346.749987203628 311.0749961275608,352.37498711980896 299.19999630451207,355.49998707324283 288.5749964628369,357.99998703598993 280.44999658390884,360.49998699873703 272.94999669566755,362.9999869614841 267.3249967794866,364.2499869428577 255.44999695643784,369.24998686835187 247.32499707750978,372.9999868124725 238.57499720789494,377.37498674727993 227.94999736621978,381.74998668208735 214.82499756179752,385.499986626208 199.82499778531493,390.4999865517022 184.82499800883235,394.24998649582284 167.94999826028945,397.3749864492567 153.57499847449364,399.24998642131703 144.8249986048788,399.24998642131703 136.07499873526396,399.24998642131703 127.9499988563359,399.24998642131703 117.94999900534751,396.74998645856994 114.19999906122686,393.62498650513606 111.07499910779299,391.12498654238897 109.19999913573267,388.62498657964187 108.5749991450459,387.9999865889551 115.44999904260041,399.24998642131703 117.94999900534751,401.74998638406413 134.8249987538904,415.49998617917316 152.94999848380687,423.62498605810123 173.57499817647042,429.2499859742822 196.0749978411943,432.99998591840284 221.07499746866526,434.2499858997764 249.82499704025687,434.2499858997764 281.0749965745956,434.2499858997764 309.82499614618723,434.2499858997764 337.3249957364053,434.2499858997764 375.4499951682985,434.2499858997764 424.1999944418669,433.6249859090896 445.44999412521724,429.87498596496897 462.32499387376015,423.62498605810123 474.19999369680886,416.12498616985994 479.19999362230305,407.3749863002451 481.69999358505015,396.74998645856994 483.5749935571105,384.8749866355212 485.4499935291708,368.6249868776651 487.3249935012311,351.1249871384354 491.69999343603854,335.49998737126606 496.07499337084596,321.12498758547025 504.8249932404608,299.8749879021199 509.1999931752682,289.87498805113154 510.44999315664177,287.9999880790712 511.07499314732854,286.1249881070109 511.07499314732854,285.4999881163241 511.6999931380153,286.74998809769767 512.3249931287021,293.6249879952522 512.3249931287021,299.8749879021199 512.3249931287021,313.62498769722896 512.3249931287021,324.8749875295909 512.3249931287021,330.49998744577186 " style="color: rgb(0, 0, 0);"/><path fill="#0bd5d5" fill-opacity="1" stroke="#e84141" stroke-opacity="1" stroke-width="2" stroke-dasharray="none" stroke-linejoin="round" stroke-linecap="butt" stroke-dashoffset="" fill-rule="nonzero" opacity="1" marker-start="" marker-mid="" marker-end="" d="M329,200 C329,182.87292817679557 341.75414364640886,169 357.5,169 C373.24585635359114,169 386,182.87292817679557 386,200 C386,217.12707182320443 373.24585635359114,231 357.5,231 C341.75414364640886,231 329,217.12707182320443 329,200 Z" id="svg_2"/></g></svg>