<svg xmlns="http://www.w3.org/2000/svg" xmlns:se="http://svg-edit.googlecode.com" xmlns:xlink="http://www.w3.org/1999/xlink" xmlns:dc="http://purl.org/dc/elements/1.1/" xmlns:cc="http://creativecommons.org/ns#" xmlns:rdf="http://www.w3.org/1999/02/22-rdf-syntax-ns#" xmlns:inkscape="http://www.inkscape.org/namespaces/inkscape" width="777" height="480" style="">                                    <title>my vector image</title>                                    <!-- Created with Vector Paint - http://www.vectorpaint.yaks.com/ https://chrome.google.com/webstore/detail/hnbpdiengicdefcjecjbnjnoifekhgdo -->                                    <rect id="backgroundrect" width="100%" height="100%" x="0" y="0" fill="#FFFFFF" stroke="none"/>                                <g class="currentLayer" style=""><title>Layer 1</title><polyline fill="#484848" stroke="#000099" stroke-width="2" stroke-linejoin="round" stroke-dashoffset="" fill-rule="nonzero" marker-start="" marker-mid="" marker-end="" id="svg_1" points="163.5749969482422,463.625 164.1999969482422,462.375 165.4499969482422,461.125 165.4499969482422,460.5 165.4499969482422,456.125 166.6999969482422,444.25 169.1999969482422,437.375 178.5749969482422,420.49998474121094 190.4499969482422,404.24998474121094 210.4499969482422,390.49998474121094 234.1999969482422,384.24998474121094 261.6999816894531,382.37498474121094 286.6999816894531,382.37498474121094 318.5749816894531,390.49998474121094 332.3249816894531,399.24998474121094 339.8249816894531,409.87498474121094 342.3249816894531,419.24998474121094 345.4499816894531,426.125 346.0749816894531,428.625 346.0749816894531,429.875 347.3249816894531,438 347.3249816894531,443.625 347.3249816894531,453 346.6999816894531,456.125 345.4499816894531,463 340.4499816894531,475.5 334.8249816894531,485.5 327.3249816894531,496.125 317.3249816894531,506.125 306.0749816894531,513.625 293.5749816894531,519.25 281.6999816894531,522.375 271.0749816894531,524.875 262.9499816894531,527.375 255.44998168945312,529.875 249.82498168945312,531.125 237.9499969482422,536.125 229.8249969482422,539.875 221.0749969482422,544.25 210.4499969482422,548.625 197.3249969482422,552.375 182.3249969482422,557.375 167.3249969482422,561.125 150.4499969482422,564.25 136.0749969482422,566.125 127.32499694824219,566.125 118.57499694824219,566.125 110.44999694824219,566.125 100.44999694824219,563.625 96.69999694824219,560.5 93.57499694824219,558 91.69999694824219,555.5 91.07499694824219,554.875 97.94999694824219,566.125 100.44999694824219,568.625 117.32499694824219,582.375 135.4499969482422,590.5 156.0749969482422,596.125 178.5749969482422,599.875 203.5749969482422,601.125 232.3249969482422,601.125 263.5749816894531,601.125 292.3249816894531,601.125 319.8249816894531,601.125 357.9499816894531,601.125 406.6999816894531,600.5 427.9499816894531,596.75 444.8249816894531,590.5 456.6999816894531,583 461.6999816894531,574.25 464.1999816894531,563.625 466.0749816894531,551.75 467.9499816894531,535.5 469.8249816894531,518 474.1999816894531,502.375 478.5749816894531,488 487.3249816894531,466.75 491.6999816894531,456.75 492.9499816894531,454.875 493.5749816894531,453 493.5749816894531,452.375 494.1999816894531,453.625 494.82501220703125,460.5 494.82501220703125,466.75 494.82501220703125,480.5 494.82501220703125,491.75 494.82501220703125,497.375 " style="color: rgb(0, 0, 0);" class=""/><path fill="#0bd5d5" fill-opacity="1" stroke="#e84141" stroke-opacity="1" stroke-width="2" stroke-dasharray="none" stroke-linejoin="round" stroke-linecap="butt" stroke-dashoffset="" fill-rule="nonzero" opacity="1" marker-start="" marker-mid="" marker-end="" d="M279,356.25 C279,339.12292817679554 291.75414364640886,325.25 307.5,325.25 C323.24585635359114,325.25 336,339.12292817679554 336,356.25 C336,373.37707182320446 323.24585635359114,387.25 307.5,387.25 C291.75414364640886,387.25 279,373.37707182320446 279,356.25 z" id="svg_2" class=""/><polyline fill="none" stroke="#e84141" stroke-width="2" stroke-linejoin="round" stroke-dashoffset="" fill-rule="nonzero" marker-start="" marker-mid="" marker-end="" id="svg_4" points="322.9499816894531,328.625 322.9499816894531,327.8093748278916 323.5749816894531,326.7218745984137 325.4499816894531,324.27499908208847 326.6999816894531,320.1968732215464 328.5749816894531,315.5749972462654 330.4499816894531,311.2249963283539 332.3249816894531,299.8062439188361 333.5749816894531,295.7281114207194 333.5749816894531,292.46561073228577 333.5749816894531,289.2031100438521 333.5749816894531,286.7562345275269 333.5749816894531,284.30935901120165 333.5749816894531,282.40623360961536 333.5749816894531,280.50310820802906 333.5749816894531,278.0562326917038 333.5749816894531,276.96873246222594 333.5749816894531,275.06560706063965 333.5749816894531,274.5218569459007 333.5749816894531,274.24998188853124 " style="color: rgb(0, 0, 0);" class=""/><polyline fill="none" stroke="#e84141" stroke-width="2" stroke-linejoin="round" stroke-dashoffset="" fill-rule="nonzero" marker-start="" marker-mid="" marker-end="" id="svg_5" points="489.8249934639782,445.4999857321383 489.8249934639782,444.2499857507648 489.8249934639782,442.99998576939123 490.449993454665,439.2499858252706 494.19999339878564,435.49998588114994 499.19999332427983,427.99998599290865 505.4499932311476,414.8749861884864 506.07499322183435,411.12498624436574 506.07499322183435,405.4999863281848 506.6999932125211,396.74998645856994 507.3249932032079,386.1249866168948 508.57499318458144,377.9999867379667 509.824993165955,374.24998679384606 509.824993165955,369.87498685903864 509.824993165955,364.87498693354445 510.44999315664177,359.2499870173635 510.44999315664177,351.7499871291222 510.44999315664177,345.49998722225445 510.44999315664177,339.8749873060735 510.44999315664177,332.99998740851896 510.44999315664177,329.8749874550851 510.44999315664177,329.2499874643983 510.44999315664177,327.374987492338 510.44999315664177,326.7499875016512 510.44999315664177,324.8749875295909 507.94999319389467,318.62498762272315 507.3249932032079,316.74998765066283 503.57499325908725,309.8749877531083 501.07499329634015,304.8749878276141 499.19999332427983,299.8749879021199 497.9499933429063,294.87498797662573 496.07499337084596,289.24998806044476 494.8249933894724,282.999988153577 493.57499340809886,277.37498823739605 492.9499934174121,269.249988358468 491.07499344535177,264.2499884329738 491.07499344535177,258.6249885167928 490.449993454665,251.12498862855153 490.449993454665,248.62498866580444 490.449993454665,242.99998874962347 490.449993454665,239.24998880550282 490.449993454665,236.12498885206892 490.449993454665,233.62498888932183 490.449993454665,231.12498892657473 490.449993454665,229.87498894520118 490.449993454665,228.62498896382763 490.449993454665,226.7499889917673 490.449993454665,225.49998901039376 490.449993454665,224.2499890290202 490.449993454665,222.99998904764666 490.449993454665,221.12498907558634 491.07499344535177,219.8749890942128 491.07499344535177,218.62498911283924 491.07499344535177,217.99998912215247 492.9499934174121,216.74998914077892 494.8249933894724,213.62498918734505 498.57499333359306,211.12498922459795 500.4499933056534,208.62498926185086 505.4499932311476,206.12498929910376 507.94999319389467,202.9999893456699 509.824993165955,201.74998936429634 510.44999315664177,201.12498937360957 " style="color: rgb(0, 0, 0);"/><path fill="#009899" fill-opacity="1" stroke="#e84141" stroke-opacity="1" stroke-width="2" stroke-dasharray="none" stroke-linejoin="round" stroke-linecap="butt" stroke-dashoffset="" fill-rule="nonzero" opacity="1" marker-start="" marker-mid="" marker-end="" d="M292,266 C292,258.2651933701657 308.11049723756906,252 328,252 C347.88950276243094,252 364,258.2651933701657 364,266 C364,273.7348066298343 347.88950276243094,280 328,280 C308.11049723756906,280 292,273.7348066298343 292,266 Z" id="svg_6"/><path fill="#009899" fill-opacity="1" stroke="#e84141" stroke-opacity="1" stroke-width="2" stroke-dasharray="none" stroke-linejoin="round" stroke-linecap="butt" stroke-dashoffset="" fill-rule="nonzero" opacity="1" marker-start="" marker-mid="" marker-end="" d="M335.449995764345,221.74998853976444 L332.3249958109111,257.99999366203855 " id="svg_8" class=""/><polyline fill="none" stroke="#e84141" stroke-width="2" stroke-linejoin="round" stroke-dashoffset="" fill-rule="nonzero" marker-start="" marker-mid="" marker-end="" id="svg_12" points="335.449995764345,221.74998906627312 335.449995764345,222.3749890569599 334.8249957736582,224.2499890290202 333.57499579228465,225.49998901039376 331.07499582953756,225.49998901039376 323.57499594129627,225.49998901039376 316.074996053055,225.49998901039376 303.5749962393195,225.49998901039376 291.074996425584,225.49998901039376 290.44999643489723,225.49998901039376 289.82499644421046,224.2499890290202 289.82499644421046,222.3749890569599 289.82499644421046,221.12498907558634 289.82499644421046,219.8749890942128 289.82499644421046,217.3749891314657 289.82499644421046,216.12498915009215 289.82499644421046,214.24998917803183 289.82499644421046,210.49998923391118 289.82499644421046,207.99998927116408 289.82499644421046,205.49998930841699 289.82499644421046,202.9999893456699 289.82499644421046,199.87498939223602 289.82499644421046,194.87498946674182 289.82499644421046,193.62498948536827 289.82499644421046,192.9999894946815 289.82499644421046,192.37498950399473 289.1999964535237,191.74998951330795 287.32499648146336,190.4999895319344 286.6999964907766,189.87498954124763 283.5749965373427,189.87498954124763 281.6999965652824,189.87498954124763 281.6999965652824,189.24998955056085 281.6999965652824,188.62498955987408 280.44999658390884,187.9999895691873 276.6999966397882,187.37498957850053 274.1999966770411,186.12498959712698 272.94999669566755,185.4999896064402 272.3249967049808,184.24998962506666 271.0749967236072,182.9999896436931 269.1999967515469,181.74998966231956 267.94999677017336,179.24998969957247 267.94999677017336,177.37498972751214 267.3249967794866,174.87498976476505 267.3249967794866,173.6249897833915 267.3249967794866,171.74998981133118 266.6999967887998,171.1249898206444 265.44999680742626,172.99998979270472 264.8249968167395,173.6249897833915 262.94999684467916,174.87498976476505 261.6999968633056,176.1249897461386 " style="color: rgb(0, 0, 0);"/><polyline fill="none" stroke="#e84141" stroke-width="2" stroke-linejoin="round" stroke-dashoffset="" fill-rule="nonzero" marker-start="" marker-mid="" marker-end="" id="svg_13" points="341.6999956712127,181.1249896716328 341.07499568052594,181.1249896716328 340.44999568983917,181.1249896716328 339.8249956991524,181.1249896716328 339.8249956991524,180.49998968094602 339.1999957084656,179.87498969025924 336.6999957457185,179.87498969025924 334.8249957736582,178.6249897088857 329.19999585747723,176.74998973682537 321.07499597854917,174.87498976476505 312.9499960996211,173.6249897833915 301.0749962765724,171.74998981133118 287.94999647215013,166.74998988583698 277.94999662116174,161.124989969656 277.32499663047497,161.124989969656 274.8249966677279,158.62499000690892 272.94999669566755,157.37499002553537 271.0749967236072,155.49999005347505 270.44999673292045,154.2499900721015 269.1999967515469,151.7499901093544 269.1999967515469,150.49999012798085 269.1999967515469,148.62499015592053 269.1999967515469,147.37499017454698 267.3249967794866,142.99999023973956 267.3249967794866,142.3749902490528 267.3249967794866,141.749990258366 267.3249967794866,140.49999027699246 267.3249967794866,137.99999031424537 267.3249967794866,136.74999033287182 267.3249967794866,134.8749903608115 267.3249967794866,134.24999037012472 267.3249967794866,132.99999038875117 267.3249967794866,131.74999040737762 267.3249967794866,131.12499041669085 267.3249967794866,129.24999044463053 267.3249967794866,128.62499045394375 267.3249967794866,126.74999048188343 267.3249967794866,124.8749905098231 267.3249967794866,122.99999053776278 267.3249967794866,121.12499056570246 267.3249967794866,120.49999057501569 " style="color: rgb(0, 0, 0);"/><polyline fill="none" stroke="#e84141" stroke-width="2" stroke-linejoin="round" stroke-dashoffset="" fill-rule="nonzero" marker-start="" marker-mid="" marker-end="" id="svg_14" points="264.8249968167395,174.24998977407827 263.57499683536594,174.24998977407827 260.44999688193207,174.24998977407827 259.1999969005585,174.24998977407827 258.57499690987174,173.6249897833915 257.3249969284982,171.74998981133118 255.44999695643784,169.24998984858408 253.57499698437752,166.74998988583698 251.6999970123172,164.24998992308988 249.82499704025687,162.37498995102956 247.94999706819655,159.87498998828246 246.699997086823,157.99999001622214 246.07499709613623,156.12499004416182 245.44999710544946,154.87499006278827 244.82499711476268,152.99999009072795 244.82499711476268,152.37499010004117 244.1999971240759,151.7499901093544 244.1999971240759,150.49999012798085 243.57499713338913,148.62499015592053 242.32499715201558,147.37499017454698 241.6999971613288,146.7499901838602 " style="color: rgb(0, 0, 0);"/><polyline fill="none" stroke="#e84141" stroke-width="2" stroke-linejoin="round" stroke-dashoffset="" fill-rule="nonzero" marker-start="" marker-mid="" marker-end="" id="svg_15" points="342.94999565258627,131.74999040737762 342.94999565258627,134.24999037012472 342.94999565258627,136.12499034218504 342.94999565258627,139.8749902863057 342.94999565258627,144.2499902211131 342.94999565258627,147.37499017454698 342.94999565258627,149.2499901466073 342.94999565258627,149.87499013729408 342.94999565258627,150.49999012798085 342.94999565258627,151.12499011866763 342.94999565258627,152.37499010004117 342.94999565258627,154.2499900721015 342.94999565258627,156.12499004416182 342.94999565258627,160.49998997896924 342.94999565258627,161.7499899603428 342.94999565258627,163.6249899324031 342.94999565258627,164.87498991377666 342.94999565258627,165.49998990446343 342.94999565258627,167.37498987652376 342.3249956618995,168.6249898578973 342.3249956618995,171.74998981133118 342.3249956618995,172.99998979270472 342.3249956618995,173.6249897833915 342.3249956618995,175.49998975545182 342.3249956618995,176.1249897461386 342.3249956618995,177.99998971819892 342.3249956618995,178.6249897088857 342.3249956618995,179.24998969957247 342.3249956618995,180.49998968094602 " style="color: rgb(0, 0, 0);"/><polyline fill="none" stroke="#e84141" stroke-width="2" stroke-linejoin="round" stroke-dashoffset="" fill-rule="nonzero" marker-start="" marker-mid="" marker-end="" id="svg_16" points="509.824993165955,201.74998936429634 509.824993165955,201.12498937360957 509.1999931752682,199.24998940154924 508.57499318458144,197.9999894201757 507.94999319389467,197.37498942948892 506.6999932125211,196.12498944811537 504.8249932404608,194.24998947605505 501.07499329634015,189.24998955056085 497.9499933429063,184.24998962506666 491.69999343603854,177.99998971819892 486.07499351985757,175.49998975545182 477.32499365024273,171.74998981133118 471.074993743375,168.6249898578973 470.4499937526882,167.99998986721053 467.9499937899411,166.1249898951502 466.0749938178808,164.24998992308988 465.449993827194,161.124989969656 465.449993827194,159.87498998828246 465.449993827194,149.87499013729408 465.449993827194,141.749990258366 465.449993827194,136.12499034218504 465.449993827194,129.8749904353173 465.449993827194,124.8749905098231 465.449993827194,121.12499056570246 465.449993827194,118.62499060295536 465.449993827194,116.74999063089503 465.449993827194,114.8749906588347 465.449993827194,114.24999066814793 " style="color: rgb(0, 0, 0);"/></g></svg>